<?xml version="1.0" standalone="no"?>
<!DOCTYPE svg PUBLIC "-//W3C//DTD SVG 20010904//EN"
 "http://www.w3.org/TR/2001/REC-SVG-20010904/DTD/svg10.dtd">
<svg version="1.0" xmlns="http://www.w3.org/2000/svg"
 width="2000.000000pt" height="2000.000000pt" viewBox="0 0 2000.000000 2000.000000"
 preserveAspectRatio="xMidYMid meet">
<metadata>
Created by potrace 1.16, written by Peter Selinger 2001-2019
</metadata>
<g transform="translate(0.000000,2000.000000) scale(0.100000,-0.100000)"
fill="#000000" stroke="none">
<path d="M13243 14211 c-41 -25 -51 -47 -103 -207 l-43 -131 -66 -7 c-36 -3
-112 -6 -168 -6 -100 0 -103 -1 -138 -31 -63 -55 -66 -145 -7 -204 15 -15 65
-54 112 -86 47 -32 96 -67 109 -77 l23 -19 -47 -150 c-37 -117 -46 -159 -41
-187 14 -73 89 -125 161 -112 19 4 85 44 156 96 67 50 127 90 132 90 5 0 66
-40 135 -90 112 -81 129 -90 169 -90 51 0 93 19 122 56 33 42 27 101 -24 254
-25 74 -45 136 -45 137 0 2 55 44 122 94 67 50 130 102 140 117 22 33 23 103
4 141 -31 58 -55 66 -240 71 l-169 5 -49 145 c-58 175 -78 201 -160 207 -41 3
-60 -1 -85 -16z m185 -408 c6 -11 27 -31 46 -42 30 -19 49 -21 189 -21 86 0
158 -4 161 -8 3 -4 -51 -49 -120 -100 -128 -94 -154 -126 -154 -187 0 -14 21
-88 47 -165 26 -77 44 -143 40 -146 -3 -3 -63 35 -133 85 -119 85 -131 91
-176 91 -60 0 -76 -9 -208 -109 -58 -44 -108 -76 -112 -72 -4 3 12 68 37 144
73 222 73 221 -132 369 -62 45 -112 83 -110 84 2 2 77 6 167 9 229 9 228 8
296 230 21 66 42 123 48 127 7 5 27 -40 57 -130 25 -75 50 -147 57 -159z"/>
<path d="M8250 13400 c-876 -234 -858 -228 -846 -289 3 -14 40 -269 81 -566
41 -297 80 -557 85 -577 8 -28 17 -39 37 -45 15 -3 175 11 356 31 181 20 332
35 335 31 3 -3 18 -469 33 -1036 20 -753 31 -1034 39 -1044 7 -8 31 -20 53
-26 282 -76 670 -523 1019 -1174 l53 -100 150 -6 c203 -9 759 -11 779 -3 9 4
52 79 95 168 230 470 530 766 904 891 73 25 143 40 219 48 94 10 113 15 124
33 12 17 13 193 5 1125 -5 607 -6 1107 -2 1110 3 4 151 -10 328 -30 302 -33
324 -35 339 -19 17 17 274 960 274 1004 0 11 -8 28 -17 36 -10 8 -399 158
-866 333 -834 312 -847 317 -873 300 -14 -9 -30 -30 -36 -48 -25 -69 -119
-248 -178 -335 -204 -304 -473 -472 -758 -472 -300 0 -550 186 -717 535 -41
86 -105 264 -105 292 0 23 -39 53 -67 52 -16 0 -395 -99 -843 -219z m830 -5
c66 -197 193 -411 314 -531 137 -136 283 -211 468 -241 85 -14 116 -15 204 -5
117 13 258 56 344 104 218 124 417 350 560 636 41 82 55 102 68 97 10 -3 58
-21 107 -40 50 -18 331 -124 625 -234 639 -239 788 -296 795 -303 4 -3 -39
-176 -95 -384 -55 -209 -106 -396 -111 -418 -10 -38 -11 -38 -52 -33 -23 4
-173 21 -334 38 -289 32 -293 32 -314 13 l-21 -19 7 -1120 7 -1121 -78 -11
c-165 -24 -369 -106 -522 -210 -269 -183 -486 -453 -661 -821 l-35 -72 -390 2
-391 3 -24 45 c-103 195 -307 521 -410 655 -214 280 -436 483 -599 546 l-59
23 -6 200 c-3 111 -16 579 -28 1041 -17 676 -24 844 -35 863 -11 17 -24 22
-58 22 -38 0 -299 -27 -580 -60 -49 -6 -90 -9 -91 -8 -6 6 -147 1019 -143
1024 5 5 164 48 613 168 539 143 819 218 845 226 44 15 52 7 80 -75z"/>
<path d="M10664 12091 c-12 -5 -24 -16 -27 -25 -9 -23 -29 -391 -25 -461 l3
-60 160 -107 c88 -59 170 -107 183 -108 25 0 352 160 370 182 16 20 36 503 21
530 -6 10 -20 23 -32 27 -12 5 -128 11 -257 15 -129 3 -266 8 -305 11 -38 3
-79 1 -91 -4z m485 -137 l84 -6 -7 -106 c-3 -58 -6 -137 -6 -176 l0 -72 -129
-63 -128 -64 -116 77 -116 77 4 47 c3 26 8 105 11 175 l6 128 157 -6 c86 -3
194 -8 240 -11z"/>
<path d="M13772 12691 c-104 -36 -168 -115 -179 -223 -11 -105 40 -199 135
-251 67 -37 125 -43 196 -23 68 20 135 77 166 140 23 49 27 136 8 200 -19 63
-100 140 -167 160 -69 20 -93 20 -159 -3z m165 -142 c56 -53 65 -98 33 -165
-46 -93 -176 -100 -230 -11 -41 66 -14 163 53 193 45 20 112 12 144 -17z"/>
<path d="M13070 12642 c-25 -12 -39 -28 -49 -58 -13 -37 -12 -44 5 -80 14 -30
29 -42 59 -53 36 -12 45 -12 76 3 83 39 84 152 4 191 -42 19 -52 19 -95 -3z"/>
<path d="M6480 12174 c-497 -63 -907 -392 -1060 -852 -81 -245 -89 -483 -24
-731 123 -471 513 -829 1004 -922 98 -19 358 -16 455 5 111 25 230 63 296 97
l57 28 223 -286 c123 -158 230 -295 237 -304 10 -15 9 -28 -8 -79 -106 -314
101 -648 430 -692 241 -32 471 107 561 340 31 79 38 236 14 318 -33 114 -96
209 -181 275 -102 78 -204 112 -341 113 l-81 1 -231 309 c-127 170 -231 312
-231 317 0 4 25 44 56 88 261 379 295 874 89 1284 -64 126 -117 199 -222 308
-186 192 -399 310 -658 364 -77 17 -313 28 -385 19z m351 -144 c242 -49 439
-157 605 -331 60 -64 144 -170 144 -183 0 -3 12 -25 26 -47 46 -73 92 -195
119 -313 74 -334 -13 -694 -234 -961 -26 -32 -41 -60 -41 -77 0 -21 69 -121
278 -399 l277 -371 93 7 c150 11 254 -24 345 -118 193 -198 132 -521 -121
-640 -61 -29 -76 -32 -162 -32 -76 0 -106 5 -153 23 -81 33 -168 116 -209 200
-31 63 -33 73 -33 172 1 93 4 112 28 163 15 32 27 68 27 80 -1 13 -59 96 -143
203 -78 99 -204 260 -280 357 -159 202 -157 201 -256 146 -125 -71 -290 -115
-466 -125 -450 -26 -873 222 -1078 632 -80 160 -112 304 -112 499 0 202 34
345 127 530 128 256 400 479 682 560 170 49 372 58 537 25z"/>
<path d="M8064 9161 c-56 -25 -110 -92 -124 -152 -33 -136 74 -270 213 -270
195 0 296 209 175 363 -57 73 -174 100 -264 59z m136 -116 c107 -56 30 -221
-81 -175 -74 31 -77 139 -5 174 39 20 50 20 86 1z"/>
<path d="M13745 11794 c-290 -45 -537 -219 -661 -465 -42 -85 -66 -155 -120
-364 -25 -93 -57 -204 -71 -245 -30 -87 -111 -253 -121 -248 -4 2 -66 36 -139
76 -147 82 -276 137 -351 152 -77 14 -117 -1 -187 -73 -115 -118 -160 -267
-108 -357 11 -20 141 -126 197 -162 6 -4 -17 -35 -60 -80 -151 -158 -198 -238
-260 -442 -53 -176 -52 -345 2 -519 110 -347 375 -594 713 -662 132 -27 317
-17 441 23 160 53 304 153 400 280 52 69 149 250 191 360 13 34 27 62 31 62 3
0 42 -21 85 -46 155 -92 197 -101 259 -56 56 41 168 165 208 231 41 67 50 100
42 145 -6 29 -27 50 -154 148 -81 63 -198 152 -259 197 -129 94 -126 80 -36
184 77 90 197 188 372 304 269 179 349 259 425 424 154 336 64 723 -219 949
-91 72 -209 133 -310 160 -78 20 -247 33 -310 24z m305 -154 c224 -76 381
-230 456 -450 29 -85 27 -289 -4 -390 -53 -172 -145 -276 -377 -432 -205 -138
-286 -201 -383 -299 -90 -92 -182 -218 -182 -251 0 -28 40 -62 245 -215 94
-69 200 -151 238 -180 l68 -54 -23 -41 c-13 -23 -57 -77 -98 -121 l-75 -80
-52 27 c-29 14 -93 51 -143 81 -50 30 -101 55 -114 55 -33 0 -59 -34 -96 -130
-126 -319 -246 -477 -433 -568 -119 -59 -191 -75 -327 -75 -279 2 -502 128
-663 378 -145 226 -172 453 -83 709 51 145 103 224 231 351 62 60 115 120 119
131 12 38 -13 67 -119 142 -128 91 -145 107 -145 136 0 37 56 138 99 180 l40
39 61 -17 c79 -21 203 -82 359 -173 127 -76 166 -87 193 -55 32 36 100 163
137 254 37 89 50 134 138 453 19 72 52 166 73 210 88 184 248 320 450 384 93
29 103 30 230 26 85 -2 132 -9 180 -25z"/>
<path d="M12460 9964 c-85 -77 -183 -231 -226 -355 -32 -92 -43 -248 -24 -330
22 -96 79 -198 150 -270 256 -258 626 -230 901 68 60 66 162 212 179 258 20
54 7 70 -128 157 -134 87 -556 370 -681 457 -91 62 -116 64 -171 15z m457
-360 c202 -136 372 -250 376 -254 12 -11 -98 -159 -171 -228 -47 -44 -95 -78
-161 -110 -93 -47 -95 -47 -195 -47 -96 0 -105 2 -177 36 -183 88 -289 277
-259 464 13 83 40 156 88 233 48 80 104 151 119 152 6 0 177 -111 380 -246z"/>
<path d="M6687 9350 c-16 -13 -33 -45 -47 -88 -43 -135 -29 -122 -140 -122
-91 0 -101 -2 -129 -26 -37 -31 -49 -80 -28 -121 9 -16 50 -53 92 -83 41 -29
74 -59 71 -66 -19 -50 -49 -164 -48 -187 1 -41 26 -73 65 -86 44 -15 70 -5
159 60 l69 50 82 -56 c92 -62 135 -70 180 -35 42 33 44 76 9 179 l-30 90 69
52 c112 83 130 120 89 187 -11 17 -21 33 -22 33 -2 1 -54 4 -117 8 l-114 6
-19 55 c-40 121 -50 140 -78 155 -40 21 -83 19 -113 -5z m93 -188 c13 -42 34
-87 47 -99 22 -23 56 -28 178 -24 l40 2 -31 -28 c-17 -15 -52 -45 -77 -66 -43
-35 -47 -42 -47 -81 0 -24 9 -69 20 -101 11 -32 20 -62 20 -67 0 -6 -29 11
-65 37 -36 25 -80 49 -99 52 -39 6 -59 -4 -140 -65 -44 -34 -58 -41 -54 -26 3
10 16 53 28 95 29 95 21 114 -73 184 l-68 50 88 5 c121 7 134 17 169 125 16
47 31 85 34 85 3 0 16 -35 30 -78z"/>
<path d="M10283 7622 c-117 -42 -168 -115 -161 -231 6 -120 64 -165 277 -221
139 -37 178 -55 203 -94 39 -64 -5 -142 -94 -167 -25 -6 -77 -9 -126 -6 -69 4
-94 11 -160 43 -42 21 -79 39 -82 41 -10 6 -43 -88 -34 -97 5 -5 32 -20 60
-34 154 -77 360 -75 478 5 72 48 107 170 73 252 -33 78 -114 121 -325 172 -40
9 -87 27 -105 39 -89 60 -64 170 47 206 63 20 200 8 266 -23 30 -15 58 -23 61
-19 4 4 14 24 23 45 14 36 14 38 -7 52 -52 33 -114 48 -227 52 -94 3 -125 0
-167 -15z"/>
<path d="M12080 7618 c-129 -45 -230 -150 -266 -277 -22 -74 -15 -206 15 -283
26 -68 103 -157 168 -195 184 -108 441 -74 574 76 187 211 118 543 -139 664
-61 29 -78 32 -177 35 -94 2 -120 -1 -175 -20z m293 -106 c64 -28 121 -84 153
-150 24 -48 28 -70 29 -137 0 -71 -4 -88 -33 -147 -101 -206 -382 -236 -535
-58 -47 55 -67 117 -67 204 1 148 72 248 213 298 65 23 175 19 240 -10z"/>
<path d="M6320 7221 l0 -411 258 0 c200 0 271 3 317 15 95 25 164 91 175 167
13 94 -21 176 -92 220 -21 13 -38 26 -38 30 0 4 11 15 25 24 69 45 87 195 31
268 -15 20 -51 49 -79 64 l-52 27 -272 3 -273 3 0 -410z m465 255 c37 -16 55
-42 55 -81 0 -75 -43 -95 -205 -95 l-125 0 0 95 0 95 120 0 c81 0 132 -5 155
-14z m4 -327 c61 -13 91 -45 91 -99 0 -43 -29 -75 -81 -90 -19 -6 -91 -10
-161 -10 l-128 0 0 105 0 105 115 0 c62 0 137 -5 164 -11z"/>
<path d="M7470 7610 c-6 -11 -26 -55 -45 -98 -18 -42 -94 -214 -169 -381 -75
-168 -136 -309 -136 -313 0 -5 43 -7 96 -6 l96 3 36 88 36 87 190 -2 190 -3
37 -85 36 -85 101 -3 100 -3 -181 410 -182 410 -97 1 c-88 0 -98 -2 -108 -20z
m174 -332 c31 -75 56 -139 56 -142 0 -3 -56 -6 -125 -6 -81 0 -125 4 -125 11
0 5 28 76 61 156 40 94 65 141 69 132 5 -8 33 -76 64 -151z"/>
<path d="M8130 7220 l0 -410 258 0 c284 0 343 8 413 58 56 40 79 87 79 161 0
34 -6 76 -13 94 -16 38 -90 107 -115 107 -12 0 -7 10 22 37 48 46 66 88 66
156 0 78 -41 139 -118 175 -57 27 -58 27 -324 30 l-268 3 0 -411z m470 251
c62 -33 66 -115 7 -151 -27 -17 -50 -20 -159 -20 l-128 0 0 95 0 95 123 0
c100 0 129 -3 157 -19z m37 -334 c85 -45 68 -150 -28 -177 -19 -6 -91 -10
-161 -10 l-128 0 0 106 0 106 143 -4 c109 -3 149 -8 174 -21z"/>
<path d="M8912 7608 c8 -13 81 -132 162 -266 l146 -243 0 -144 0 -145 95 0 95
0 0 146 0 147 150 248 c83 137 153 255 156 264 6 14 -5 15 -87 13 l-93 -3
-102 -170 c-56 -93 -106 -171 -111 -172 -5 -2 -56 76 -113 172 l-105 175 -104
0 -103 0 14 -22z"/>
<path d="M10900 7220 l0 -410 60 0 60 0 2 183 3 182 238 3 237 2 0 -185 0
-185 60 0 60 0 0 410 0 410 -60 0 -60 0 0 -175 0 -175 -240 0 -240 0 0 175 0
175 -60 0 -60 0 0 -410z"/>
<path d="M12860 7220 l0 -410 60 0 60 0 0 125 0 125 138 0 c188 0 260 21 334
95 54 55 71 106 67 208 -4 72 -8 90 -34 132 -17 27 -48 62 -70 77 -72 50 -119
58 -347 58 l-208 0 0 -410z m456 283 c105 -56 123 -207 34 -287 -48 -43 -106
-56 -255 -56 l-114 0 -3 186 -3 186 150 -4 c131 -3 155 -6 191 -25z"/>
</g>
</svg>
